<svg xmlns="http://www.w3.org/2000/svg" width="512" height="512" style="" viewBox="0 0 512 512" data-svgdocument="" id="_6t8C5zQ1jfF6dXFIYA6Hx" class="fl-svgdocument" x="0" y="0" xmlns:xlink="http://www.w3.org/1999/xlink"><defs id="_0bvrHFitir1H6J_Gce5zu" transform="matrix(0.8680119432720962, 0, 0, 0.8680119432720962, -30.405090213777775, 115.67620326240171)"/><rect id="_fmzLyK9AgHNZORtKsGOOB" x="-0.013" y="0" width="176.769" height="176.769" stroke="none" fill="#70d4c0" transform="matrix(2.3533538494154334, 0, 0, 1.4967998644446419, 48.03059359848189, 123.70609448221308)"/><rect id="_hIfY5Rhb_6Bk0Kzr5c8eO" x="-0.013" y="0" width="176.769" height="176.769" stroke="none" fill="#ffffff" transform="matrix(2.2305303323815977, 0, 0, 1.3808334749448872, 58.833402469475296, 133.91677774225252)"/><rect id="_3FMkXxH_a5WJLBmHu-w1q" x="-0.013" y="0" width="176.769" height="176.769" stroke="none" fill="#70d4c0" transform="matrix(2.174630349946018, 0, 0, 1.3304886607757305, 63.75351990829757, 138.3423405001745)"/><path text="COMPANY" text-anchor="end" font-size="100" letter-spacing="0" side="left" offset="1" dx="0" dy="0" space="preserve" href="" font-family="Flamenco" font-scale="contain" transform="matrix(0.7320814196173971, 0, 0, 0.7320814196173971, 420.388857177069, 219.59038855930015)" x="0" y="0" fill="#ffffff" data-fl-textpath="" id="_ekMD_OmNdUN0h4WFHQR_E" d="M-403.6-12.1L-403.6-12.1Q-402.90000000000003-13.1 -402-13.1Q-401.1-13.1 -400.05-12.25Q-399-11.4 -399-10.6Q-399-9.8 -399.6-9.1L-399.6-9.1Q-408 1 -422.7 1L-422.7 1Q-435.7 1 -443.90000000000003-7.65Q-452.1-16.3 -452.1-30.3Q-452.1-44.3 -443.90000000000003-53.05Q-435.7-61.8 -423.25-61.8Q-410.8-61.8 -402.5-57L-402.5-57Q-401-56.2 -401-54.9L-401-54.9L-401-46.3Q-401-45.3 -401.8-44.65Q-402.6-44 -403.7-44Q-404.8-44 -405.6-44.65Q-406.40000000000003-45.3 -406.40000000000003-46.3L-406.40000000000003-46.3L-406.40000000000003-53.7Q-413.8-57.1 -422.7-57.1L-422.7-57.1Q-433.40000000000003-57.1 -440.05-49.65Q-446.7-42.2 -446.7-30.4Q-446.7-18.6 -440.05-11.15Q-433.40000000000003-3.7 -421.95-3.7Q-410.5-3.7 -403.6-12.1ZM-382.75-7.9Q-391.2-16.8 -391.2-30.4Q-391.2-44 -382.75-52.9Q-374.3-61.8 -361-61.8Q-347.7-61.8 -339.25-52.9Q-330.8-44 -330.8-30.35Q-330.8-16.7 -339.25-7.85Q-347.7 1 -361 1Q-374.3 1 -382.75-7.9ZM-378.90000000000003-49.55Q-385.8-42 -385.8-30.4Q-385.8-18.8 -378.90000000000003-11.25Q-372-3.7 -361-3.7Q-350-3.7 -343.1-11.25Q-336.2-18.8 -336.2-30.4Q-336.2-42 -343.1-49.55Q-350-57.1 -361-57.1Q-372-57.1 -378.90000000000003-49.55ZM-316-1.3L-316-1.3L-316-56.1L-322-56.1Q-323-56.1 -323.65-56.75Q-324.3-57.4 -324.3-58.4Q-324.3-59.4 -323.65-60.1Q-323-60.8 -322-60.8L-322-60.8L-313.7-60.8Q-312.09999999999997-60.8 -311.09999999999997-59.6L-311.09999999999997-59.6L-286-25.3L-261-59.5Q-260.1-60.8 -258.5-60.8L-258.5-60.8L-250-60.8Q-249-60.8 -248.35-60.1Q-247.7-59.4 -247.7-58.4Q-247.7-57.4 -248.35-56.75Q-249-56.1 -250-56.1L-250-56.1L-256-56.1L-256-6.2Q-256-4.7 -253.7-4.7L-253.7-4.7L-250-4.7Q-249-4.7 -248.35-4Q-247.7-3.3 -247.7-2.3Q-247.7-1.3 -248.35-0.65Q-249 0 -250 0L-250 0L-253.7 0Q-261.4 0 -261.4-6.2L-261.4-6.2L-261.4-50.3L-283.8-19.7Q-284.59999999999997-18.6 -286-18.6Q-287.4-18.6 -288.2-19.7L-288.2-19.7L-310.59999999999997-50.3L-310.59999999999997-1.3Q-310.59999999999997-0.3 -311.4 0.35Q-312.2 1 -313.3 1Q-314.4 1 -315.2 0.35Q-316-0.3 -316-1.3ZM-234.6-1.3L-234.6-1.3L-234.6-56.1L-240.49999999999997-56.1Q-241.49999999999997-56.1 -242.14999999999998-56.75Q-242.79999999999998-57.4 -242.79999999999998-58.4Q-242.79999999999998-59.4 -242.14999999999998-60.1Q-241.49999999999997-60.8 -240.49999999999997-60.8L-240.49999999999997-60.8L-209.09999999999997-60.8Q-187.29999999999998-60.8 -187.29999999999998-41.15Q-187.29999999999998-21.5 -209.09999999999997-21.5L-209.09999999999997-21.5L-229.2-21.5L-229.2-1.3Q-229.2-0.3 -229.99999999999997 0.35Q-230.79999999999998 1 -231.89999999999998 1Q-232.99999999999997 1 -233.79999999999998 0.35Q-234.6-0.3 -234.6-1.3ZM-209.09999999999997-56.1L-229.2-56.1L-229.2-26.1L-209.09999999999997-26.1Q-192.7-26.1 -192.7-41.1Q-192.7-56.1 -209.09999999999997-56.1L-209.09999999999997-56.1ZM-142.1-23.7L-156.7-53.7L-171.2-23.7L-142.1-23.7ZM-165.2-60.8L-165.2-60.8L-156.29999999999998-60.8Q-154.7-60.8 -154.1-59.6L-154.1-59.6L-125.79999999999998-2.4Q-125.6-2 -125.6-1.5L-125.6-1.5Q-125.6 0.2 -127.19999999999999 0.8L-127.19999999999999 0.8Q-127.79999999999998 1 -128.29999999999998 1L-128.29999999999998 1Q-130 1 -130.6-0.3L-130.6-0.3L-139.89999999999998-19.1L-173.39999999999998-19.1L-182.7-0.3Q-183.6 1.7 -186.1 0.8L-186.1 0.8Q-187.7 0.2 -187.7-1.4L-187.7-1.4Q-187.7-1.8 -187.5-2.3L-187.5-2.3L-160.89999999999998-56.1L-165.2-56.1Q-166.2-56.1 -166.85-56.75Q-167.5-57.4 -167.5-58.4Q-167.5-59.4 -166.85-60.1Q-166.2-60.8 -165.2-60.8ZM-110.4-50.6L-110.4-1.3Q-110.4-0.3 -111.2 0.35Q-112 1 -113.1 1Q-114.2 1 -115 0.35Q-115.8-0.3 -115.8-1.3L-115.8-1.3L-115.8-56.1L-121.3-56.1Q-122.4-56.1 -123.2-56.8Q-124-57.5 -124-58.5Q-124-59.5 -123.25-60.15Q-122.5-60.8 -121.3-60.8L-121.3-60.8L-113.5-60.8Q-111.9-60.8 -111-59.8L-111-59.8L-71.8-9.4L-71.8-56.1L-77.7-56.1Q-78.7-56.1 -79.35-56.75Q-80-57.4 -80-58.4Q-80-59.4 -79.35-60.1Q-78.7-60.8 -77.7-60.8L-77.7-60.8L-60.5-60.8Q-59.5-60.8 -58.849999999999994-60.1Q-58.2-59.4 -58.2-58.4Q-58.2-57.4 -58.849999999999994-56.75Q-59.5-56.1 -60.5-56.1L-60.5-56.1L-66.4-56.1L-66.4-1.6Q-66.4 1 -69 1L-69 1Q-70.4 1 -71.4-0.4L-71.4-0.4L-110.4-50.6ZM-28.099999999999987-26.6L-4.79999999999999-60.8Q-3.999999999999986-61.9 -3.099999999999987-61.9Q-2.1999999999999886-61.9 -1.29999999999999-61.4L-1.29999999999999-61.4Q-0.09999999999998721-60.7 -0.09999999999998721-59.65Q-0.09999999999998721-58.6 -0.3999999999999915-58.1L-0.3999999999999915-58.1L-25.399999999999988-22.2L-25.399999999999988-1.3Q-25.399999999999988-0.3 -26.19999999999999 0.35Q-26.99999999999999 1 -28.099999999999987 1Q-29.19999999999999 1 -29.99999999999999 0.35Q-30.79999999999999-0.3 -30.79999999999999-1.3L-30.79999999999999-1.3L-30.79999999999999-22L-55.89999999999999-58.2Q-56.19999999999999-58.7 -56.19999999999999-59.1L-56.19999999999999-59.1Q-56.19999999999999-60.7 -55.09999999999999-61.3Q-53.999999999999986-61.9 -53.04999999999999-61.9Q-52.09999999999999-61.9 -51.39999999999999-60.7L-51.39999999999999-60.7L-28.099999999999987-26.6Z"/><path text="NAME" text-anchor="end" font-size="100" letter-spacing="0" side="left" offset="1" dx="0" dy="0" space="preserve" href="" font-family="Flamenco" font-scale="contain" transform="matrix(0.7320814196173971, 0, 0, 0.7320814196173971, 419.3718683363514, 276.01115160250123)" x="0" y="0" fill="#ffffff" data-fl-textpath="" id="_JRawFWExr1KEELYKn2yA1" d="M-255.79999999999998-50.6L-255.79999999999998-1.3Q-255.79999999999998-0.3 -256.59999999999997 0.35Q-257.4 1 -258.5 1Q-259.59999999999997 1 -260.4 0.35Q-261.2-0.3 -261.2-1.3L-261.2-1.3L-261.2-56.1L-266.7-56.1Q-267.79999999999995-56.1 -268.59999999999997-56.8Q-269.4-57.5 -269.4-58.5Q-269.4-59.5 -268.65-60.15Q-267.9-60.8 -266.7-60.8L-266.7-60.8L-258.9-60.8Q-257.29999999999995-60.8 -256.4-59.8L-256.4-59.8L-217.2-9.4L-217.2-56.1L-223.09999999999997-56.1Q-224.09999999999997-56.1 -224.74999999999997-56.75Q-225.39999999999998-57.4 -225.39999999999998-58.4Q-225.39999999999998-59.4 -224.74999999999997-60.1Q-224.09999999999997-60.8 -223.09999999999997-60.8L-223.09999999999997-60.8L-205.89999999999998-60.8Q-204.89999999999998-60.8 -204.24999999999997-60.1Q-203.59999999999997-59.4 -203.59999999999997-58.4Q-203.59999999999997-57.4 -204.24999999999997-56.75Q-204.89999999999998-56.1 -205.89999999999998-56.1L-205.89999999999998-56.1L-211.79999999999998-56.1L-211.79999999999998-1.6Q-211.79999999999998 1 -214.39999999999998 1L-214.39999999999998 1Q-215.79999999999998 1 -216.79999999999998-0.4L-216.79999999999998-0.4L-255.79999999999998-50.6ZM-155.49999999999997-23.7L-170.09999999999997-53.7L-184.59999999999997-23.7L-155.49999999999997-23.7ZM-178.59999999999997-60.8L-178.59999999999997-60.8L-169.69999999999996-60.8Q-168.09999999999997-60.8 -167.49999999999997-59.6L-167.49999999999997-59.6L-139.19999999999996-2.4Q-138.99999999999997-2 -138.99999999999997-1.5L-138.99999999999997-1.5Q-138.99999999999997 0.2 -140.59999999999997 0.8L-140.59999999999997 0.8Q-141.19999999999996 1 -141.69999999999996 1L-141.69999999999996 1Q-143.39999999999998 1 -143.99999999999997-0.3L-143.99999999999997-0.3L-153.29999999999995-19.1L-186.79999999999995-19.1L-196.09999999999997-0.3Q-196.99999999999997 1.7 -199.49999999999997 0.8L-199.49999999999997 0.8Q-201.09999999999997 0.2 -201.09999999999997-1.4L-201.09999999999997-1.4Q-201.09999999999997-1.8 -200.89999999999998-2.3L-200.89999999999998-2.3L-174.29999999999995-56.1L-178.59999999999997-56.1Q-179.59999999999997-56.1 -180.24999999999997-56.75Q-180.89999999999998-57.4 -180.89999999999998-58.4Q-180.89999999999998-59.4 -180.24999999999997-60.1Q-179.59999999999997-60.8 -178.59999999999997-60.8ZM-129.2-1.3L-129.2-1.3L-129.2-56.1L-135.2-56.1Q-136.2-56.1 -136.84999999999997-56.75Q-137.49999999999997-57.4 -137.49999999999997-58.4Q-137.49999999999997-59.4 -136.84999999999997-60.1Q-136.2-60.8 -135.2-60.8L-135.2-60.8L-126.89999999999998-60.8Q-125.29999999999998-60.8 -124.29999999999998-59.6L-124.29999999999998-59.6L-99.19999999999997-25.3L-74.19999999999997-59.5Q-73.29999999999998-60.8 -71.69999999999997-60.8L-71.69999999999997-60.8L-63.199999999999974-60.8Q-62.199999999999974-60.8 -61.54999999999998-60.1Q-60.89999999999998-59.4 -60.89999999999998-58.4Q-60.89999999999998-57.4 -61.54999999999998-56.75Q-62.199999999999974-56.1 -63.199999999999974-56.1L-63.199999999999974-56.1L-69.19999999999997-56.1L-69.19999999999997-6.2Q-69.19999999999997-4.7 -66.89999999999998-4.7L-66.89999999999998-4.7L-63.199999999999974-4.7Q-62.199999999999974-4.7 -61.54999999999998-4Q-60.89999999999998-3.3 -60.89999999999998-2.3Q-60.89999999999998-1.3 -61.54999999999998-0.65Q-62.199999999999974 0 -63.199999999999974 0L-63.199999999999974 0L-66.89999999999998 0Q-74.59999999999998 0 -74.59999999999998-6.2L-74.59999999999998-6.2L-74.59999999999998-50.3L-96.99999999999997-19.7Q-97.79999999999998-18.6 -99.19999999999997-18.6Q-100.59999999999998-18.6 -101.39999999999998-19.7L-101.39999999999998-19.7L-123.79999999999998-50.3L-123.79999999999998-1.3Q-123.79999999999998-0.3 -124.59999999999998 0.35Q-125.39999999999998 1 -126.49999999999997 1Q-127.59999999999998 1 -128.39999999999998 0.35Q-129.2-0.3 -129.2-1.3ZM-53.699999999999974-60.8L-53.699999999999974-60.8L-6.799999999999969-60.8Q-4.199999999999974-60.8 -4.199999999999974-58.4L-4.199999999999974-58.4L-4.199999999999974-50.2Q-4.199999999999974-49.2 -4.999999999999972-48.55Q-5.799999999999969-47.9 -6.89999999999997-47.9Q-7.999999999999972-47.9 -8.799999999999969-48.55Q-9.599999999999973-49.2 -9.599999999999973-50.2L-9.599999999999973-50.2L-9.599999999999973-56.1L-42.39999999999997-56.1L-42.39999999999997-32.9L-14.199999999999974-32.9L-14.199999999999974-36.6Q-14.199999999999974-37.6 -13.449999999999974-38.25Q-12.699999999999974-38.9 -11.599999999999973-38.9Q-10.499999999999972-38.9 -9.749999999999972-38.25Q-8.999999999999972-37.6 -8.999999999999972-36.6L-8.999999999999972-36.6L-8.999999999999972-24.4Q-8.999999999999972-23.4 -9.749999999999972-22.75Q-10.499999999999972-22.1 -11.599999999999973-22.1Q-12.699999999999974-22.1 -13.449999999999974-22.75Q-14.199999999999974-23.4 -14.199999999999974-24.4L-14.199999999999974-24.4L-14.199999999999974-28.2L-42.39999999999997-28.2L-42.39999999999997-4.7L-6.89999999999997-4.7Q-5.699999999999974-4.7 -4.949999999999974-4.05Q-4.199999999999974-3.4 -4.199999999999974-2.4Q-4.199999999999974-1.4 -4.999999999999972-0.7Q-5.799999999999969 0 -6.89999999999997 0L-6.89999999999997 0L-45.29999999999997 0Q-47.79999999999997 0 -47.79999999999997-2.2L-47.79999999999997-2.2L-47.79999999999997-56.1L-53.699999999999974-56.1Q-54.699999999999974-56.1 -55.34999999999997-56.75Q-55.99999999999997-57.4 -55.99999999999997-58.4Q-55.99999999999997-59.4 -55.34999999999997-60.1Q-54.699999999999974-60.8 -53.699999999999974-60.8Z"/><g id="_Hzyhatrlv6jZAzJkBucYH" transform="matrix(0.8125000690633805, 0, 0, 0.8125000690633805, 48.000001060724735, 47.99999711998929)"><path id="__kuwAiRLfxAL22UeTB-DX" fill-rule="evenodd" clip-rule="evenodd" d="M46.792,70.256c-0.088,0.555,1.847-10.14,2.447-13.867    c1.03-3.449,1.696-7.597,3.112-11.527c0.092-0.258,0.186-0.517,0.242-0.783c0.361-1.703,1.039-3.257,2.01-4.712    c0.445-0.667,0.686-1.479,0.967-2.243c0.074-0.195-0.053-0.463-0.098-0.756c-0.17,0.123-0.254,0.153-0.289,0.213    c-2.123,3.559-4.256,7.111-6.34,10.693c-0.279,0.482-0.429,1.117-0.416,1.676c0.029,1.281-0.392,2.403-0.959,3.517    c-0.073-0.394-0.084-0.78-0.071-1.165c0.083-2.502,0.176-5.004,0.251-7.507c0.046-1.487,0.026-2.977,0.107-4.46    c0.091-1.678,0.263-3.352,0.397-5.028c0.136-1.676,0.25-3.354,0.406-5.028c0.336-3.61,1.592-6.911,3.415-10.018    c0.127-0.217,0.314-0.398,0.469-0.593c0.408,0.305,0.721,0.636,1.104,0.803c0.371,0.162,0.922,0.348,1.205,0.189    c1.066-0.597,2.246-0.641,3.383-0.896c1.301-0.293,2.174-1.046,2.455-2.379c0.096-0.451,0.234-0.949,0.127-1.368    c-0.088-0.342-0.51-0.599-0.783-0.892c0.143-0.32,0.311-0.632,0.426-0.961c0.588-1.708-0.217-3.004-1.984-3.345    c-0.787-0.15-1.543-0.464-2.229-0.679c0-0.547,0.043-0.942-0.01-1.325c-0.107-0.823-0.617-1.338-1.395-1.564    c-0.863-0.251-1.705-0.124-2.211,0.639c-0.619,0.939-1.098,1.973-1.619,2.976c-0.189,0.36-0.324,0.749-0.555,1.291    c-0.39-0.716-0.675-1.268-0.988-1.804c-0.309-0.528-0.342-1.25-1.134-1.681c-0.091,0.696-0.126,1.232-0.234,1.754    c-0.246,1.189-0.014,2.263,0.742,3.202c0.598,0.741,0.838,1.562,0.804,2.504c-0.038,1.019,0.445,1.797,1.242,2.399    c0.215,0.162,0.431,0.324,0.734,0.553c-0.416,0.813-0.798,1.621-1.23,2.398c-1.021,1.826-1.792,3.754-2.148,5.803    c-0.396,2.269-0.662,4.562-0.913,6.853c-0.213,1.944-0.365,3.895-0.469,5.848c-0.119,2.226-0.156,4.457-0.221,6.686    c-0.089,3.13-0.153,6.259-0.261,9.388c-0.034,1.013-0.177,2.019-0.26,3.028c-0.025,0.312-0.046,3.361-0.372,4.503    c-0.468-0.232-1.128-1.72-0.848-2.135c0.532-0.795,0.46-1.646,0.144-2.476c-0.305-0.8-1.272-6.574-1.992-7.469    c-0.295-0.364-1.012-4.983-1.562-6.02c-0.618-1.17-2.167-2.917-2.147-2.605c0.062,0.971,0.094,1.961,0.303,2.906    c0.717,3.244,1.308,6.508,1.856,9.785c0.496,2.962,0.749,5.978,1.697,8.858c0.16,0.483,0.916,2.58,1.733,3.721    C45.649,68.299,46.792,70.256,46.792,70.256z" stroke="none" fill="#ffffff" transform="matrix(0, -5.398660182952881, 3.906320571899414, 0, 36.44450759887695, 584.7325439453125)"/><path id="_M7ELs4QrGxEWhcfcKhTOr" fill-rule="evenodd" clip-rule="evenodd" d="M45.812,67.32c0,0-0.384,21.609,1.023,26.107c0.174,0.557,0.62,0.442,0.853,0.404   c0.206-0.034,0.833-0.098,0.489-0.613c-0.979-1.468-1.276-8.188-1.468-13.337c-0.286-7.668,0.407-12.727,0.407-12.727L45.812,67.32   z" stroke="none" fill="#ffffff" transform="matrix(0, -5.398660182952881, 6.416557312011719, 0, -139.55372619628906, 582.9297485351562)"/></g></svg>